<?xml version="1.0" encoding="utf-8"?>
<!-- Generator: Adobe Illustrator 24.1.0, SVG Export Plug-In . SVG Version: 6.00 Build 0)  -->
<svg version="1.1" id="Layer_1" xmlns="http://www.w3.org/2000/svg" xmlns:xlink="http://www.w3.org/1999/xlink" x="0px" y="0px"
	style="enable-background:new 0 0 50 50;" xml:space="preserve">
<style type="text/css">
	.st0{fill:#ffffff;}
</style>
<g>
	<path class="st0" d="M16.32,22.97c0,0,0-0.09,0-0.31c0-1.52-0.47-3.05-1.88-3.05c-1.41,0-1.88,1.53-1.88,3.05c0,0.22,0,0.31,0,0.31
		V28h3.76V22.97z"/>
	<path class="st0" d="M25.49,34.84h-5.41c-0.96,0-3.76-0.43-3.76-3.67v-2.12h-0.01v-0.34h-3.76v10.54h13.67v-3.68
		C26.22,35.16,25.89,34.84,25.49,34.84z"/>
	<path class="st0" d="M20.09,28.04c0,1.53,0.47,3.05,1.88,3.05c1.41,0,1.88-1.53,1.88-3.05V25.7h-3.76V28.04z"/>
	<path class="st0" d="M20.08,21.66L20.08,21.66l0,3.34h3.76v-7.74h-4.44c0.4,0.54,0.67,1.27,0.67,2.28V21.66z"/>
	<path class="st0" d="M25.16,1c-13.25,0-24,10.75-24,24s10.75,24,24,24s24-10.75,24-24S38.41,1,25.16,1z M38.91,34.84H27.62v5.8
		H8.79v-11.6c0,0,0-6.26,0-9.5c0-3.24,2.81-3.67,3.76-3.67h3.76c0,0,0,0,0,0h6.81c0.4,0,0.73-0.32,0.73-0.73v-4.35
		c0-0.4,0.32-0.73,0.73-0.73h17.37c0.4,0,0.73,0.32,0.73,0.73v20.37C42.67,34.41,39.87,34.84,38.91,34.84z"/>
	<path class="st0" d="M38.18,23.21h-9.84c-0.4,0-0.73,0.32-0.73,0.73v7.23c0,1.01-0.27,1.74-0.67,2.28H38.2
		c0.35-0.48,0.71-1.18,0.71-2.1c0-0.28,0-0.4,0-0.4v-7.01C38.91,23.53,38.58,23.21,38.18,23.21z"/>
	<path class="st0" d="M38.18,11.46h-9.84c-0.4,0-0.73,0.32-0.73,0.73v8.9c0,0.4,0.32,0.73,0.73,0.73h9.84c0.4,0,0.73-0.32,0.73-0.73
		v-8.9C38.91,11.78,38.58,11.46,38.18,11.46z"/>
</g>
</svg>
